<mxfile host="Electron" modified="2023-12-15T10:49:56.104Z" agent="Mozilla/5.0 (Windows NT 10.0; Win64; x64) AppleWebKit/537.36 (KHTML, like Gecko) draw.io/22.1.2 Chrome/114.0.5735.289 Electron/25.9.4 Safari/537.36" etag="H5s0Z7FuQXgcIOcPMWJi" version="22.1.2" type="device">
  <diagram name="Page-1" id="b5b7bab2-c9e2-2cf4-8b2a-24fd1a2a6d21">
    <mxGraphModel dx="1833" dy="1170" grid="0" gridSize="10" guides="1" tooltips="1" connect="1" arrows="1" fold="1" page="0" pageScale="1" pageWidth="827" pageHeight="1169" background="none" math="0" shadow="0">
      <root>
        <mxCell id="0" />
        <mxCell id="1" parent="0" />
        <mxCell id="RFTkVhOzcL3C026ARIEq-14" value="" style="rounded=0;whiteSpace=wrap;html=1;imageWidth=140;" vertex="1" parent="1">
          <mxGeometry x="40" y="60" width="1640" height="140" as="geometry" />
        </mxCell>
        <mxCell id="RFTkVhOzcL3C026ARIEq-8" value="" style="rounded=0;whiteSpace=wrap;html=1;imageWidth=140;" vertex="1" parent="1">
          <mxGeometry x="40" y="280" width="1240" height="140" as="geometry" />
        </mxCell>
        <mxCell id="RFTkVhOzcL3C026ARIEq-9" value="" style="rounded=0;whiteSpace=wrap;html=1;imageWidth=140;" vertex="1" parent="1">
          <mxGeometry x="40" y="500" width="1240" height="140" as="geometry" />
        </mxCell>
        <mxCell id="4hjQzBS3B8wGqRVhp3q0-3" value="«component»&lt;br&gt;&lt;b&gt;OfferGUI&lt;/b&gt;" style="html=1;dropTarget=0;whiteSpace=wrap;" parent="1" vertex="1">
          <mxGeometry x="60" y="90" width="180" height="90" as="geometry" />
        </mxCell>
        <mxCell id="4hjQzBS3B8wGqRVhp3q0-4" value="" style="shape=module;jettyWidth=8;jettyHeight=4;" parent="4hjQzBS3B8wGqRVhp3q0-3" vertex="1">
          <mxGeometry x="1" width="20" height="20" relative="1" as="geometry">
            <mxPoint x="-27" y="7" as="offset" />
          </mxGeometry>
        </mxCell>
        <mxCell id="4hjQzBS3B8wGqRVhp3q0-7" value="«Component»&lt;br&gt;&lt;b&gt;OfferDAO&lt;/b&gt;" style="html=1;dropTarget=0;whiteSpace=wrap;" parent="1" vertex="1">
          <mxGeometry x="155" y="530" width="180" height="90" as="geometry" />
        </mxCell>
        <mxCell id="4hjQzBS3B8wGqRVhp3q0-8" value="" style="shape=module;jettyWidth=8;jettyHeight=4;" parent="4hjQzBS3B8wGqRVhp3q0-7" vertex="1">
          <mxGeometry x="1" width="20" height="20" relative="1" as="geometry">
            <mxPoint x="-27" y="7" as="offset" />
          </mxGeometry>
        </mxCell>
        <mxCell id="4hjQzBS3B8wGqRVhp3q0-10" value="«Component»&lt;br&gt;&lt;b&gt;DeveloperDAO&lt;/b&gt;" style="html=1;dropTarget=0;whiteSpace=wrap;" parent="1" vertex="1">
          <mxGeometry x="470" y="530" width="180" height="90" as="geometry" />
        </mxCell>
        <mxCell id="4hjQzBS3B8wGqRVhp3q0-11" value="" style="shape=module;jettyWidth=8;jettyHeight=4;" parent="4hjQzBS3B8wGqRVhp3q0-10" vertex="1">
          <mxGeometry x="1" width="20" height="20" relative="1" as="geometry">
            <mxPoint x="-27" y="7" as="offset" />
          </mxGeometry>
        </mxCell>
        <mxCell id="4hjQzBS3B8wGqRVhp3q0-18" value="«component»&lt;br&gt;&lt;b&gt;EmployerGUI&lt;/b&gt;" style="html=1;dropTarget=0;whiteSpace=wrap;" parent="1" vertex="1">
          <mxGeometry x="670" y="90" width="180" height="90" as="geometry" />
        </mxCell>
        <mxCell id="4hjQzBS3B8wGqRVhp3q0-19" value="" style="shape=module;jettyWidth=8;jettyHeight=4;" parent="4hjQzBS3B8wGqRVhp3q0-18" vertex="1">
          <mxGeometry x="1" width="20" height="20" relative="1" as="geometry">
            <mxPoint x="-27" y="7" as="offset" />
          </mxGeometry>
        </mxCell>
        <mxCell id="4hjQzBS3B8wGqRVhp3q0-20" value="«component»&lt;br&gt;&lt;b&gt;DeveloperGUI&lt;/b&gt;" style="html=1;dropTarget=0;whiteSpace=wrap;" parent="1" vertex="1">
          <mxGeometry x="470" y="90" width="180" height="90" as="geometry" />
        </mxCell>
        <mxCell id="4hjQzBS3B8wGqRVhp3q0-21" value="" style="shape=module;jettyWidth=8;jettyHeight=4;" parent="4hjQzBS3B8wGqRVhp3q0-20" vertex="1">
          <mxGeometry x="1" width="20" height="20" relative="1" as="geometry">
            <mxPoint x="-27" y="7" as="offset" />
          </mxGeometry>
        </mxCell>
        <mxCell id="4hjQzBS3B8wGqRVhp3q0-22" value="«component»&lt;br&gt;&lt;b&gt;LoginGUI&lt;/b&gt;" style="html=1;dropTarget=0;whiteSpace=wrap;" parent="1" vertex="1">
          <mxGeometry x="860" y="90" width="180" height="90" as="geometry" />
        </mxCell>
        <mxCell id="4hjQzBS3B8wGqRVhp3q0-23" value="" style="shape=module;jettyWidth=8;jettyHeight=4;" parent="4hjQzBS3B8wGqRVhp3q0-22" vertex="1">
          <mxGeometry x="1" width="20" height="20" relative="1" as="geometry">
            <mxPoint x="-27" y="7" as="offset" />
          </mxGeometry>
        </mxCell>
        <mxCell id="4hjQzBS3B8wGqRVhp3q0-25" value="«component»&lt;br&gt;&lt;b&gt;SignUpGUI&lt;/b&gt;" style="html=1;dropTarget=0;whiteSpace=wrap;" parent="1" vertex="1">
          <mxGeometry x="1061" y="90" width="180" height="90" as="geometry" />
        </mxCell>
        <mxCell id="4hjQzBS3B8wGqRVhp3q0-26" value="" style="shape=module;jettyWidth=8;jettyHeight=4;" parent="4hjQzBS3B8wGqRVhp3q0-25" vertex="1">
          <mxGeometry x="1" width="20" height="20" relative="1" as="geometry">
            <mxPoint x="-27" y="7" as="offset" />
          </mxGeometry>
        </mxCell>
        <mxCell id="4hjQzBS3B8wGqRVhp3q0-27" value="«component»&lt;br&gt;&lt;b&gt;InboxGUI&lt;/b&gt;" style="html=1;dropTarget=0;whiteSpace=wrap;" parent="1" vertex="1">
          <mxGeometry x="1270" y="90" width="180" height="90" as="geometry" />
        </mxCell>
        <mxCell id="4hjQzBS3B8wGqRVhp3q0-28" value="" style="shape=module;jettyWidth=8;jettyHeight=4;" parent="4hjQzBS3B8wGqRVhp3q0-27" vertex="1">
          <mxGeometry x="1" width="20" height="20" relative="1" as="geometry">
            <mxPoint x="-27" y="7" as="offset" />
          </mxGeometry>
        </mxCell>
        <mxCell id="4hjQzBS3B8wGqRVhp3q0-29" value="«component»&lt;br&gt;&lt;b&gt;ChatGUI&lt;/b&gt;" style="html=1;dropTarget=0;whiteSpace=wrap;" parent="1" vertex="1">
          <mxGeometry x="1474" y="90" width="180" height="90" as="geometry" />
        </mxCell>
        <mxCell id="4hjQzBS3B8wGqRVhp3q0-30" value="" style="shape=module;jettyWidth=8;jettyHeight=4;" parent="4hjQzBS3B8wGqRVhp3q0-29" vertex="1">
          <mxGeometry x="1" width="20" height="20" relative="1" as="geometry">
            <mxPoint x="-27" y="7" as="offset" />
          </mxGeometry>
        </mxCell>
        <mxCell id="O_cc4rlv1EW-NWDAQmC--1" value="«component»&lt;br&gt;&lt;b&gt;OfferControl&lt;/b&gt;" style="html=1;dropTarget=0;whiteSpace=wrap;" parent="1" vertex="1">
          <mxGeometry x="60" y="310" width="180" height="90" as="geometry" />
        </mxCell>
        <mxCell id="O_cc4rlv1EW-NWDAQmC--2" value="" style="shape=module;jettyWidth=8;jettyHeight=4;" parent="O_cc4rlv1EW-NWDAQmC--1" vertex="1">
          <mxGeometry x="1" width="20" height="20" relative="1" as="geometry">
            <mxPoint x="-27" y="7" as="offset" />
          </mxGeometry>
        </mxCell>
        <mxCell id="O_cc4rlv1EW-NWDAQmC--3" value="«component»&lt;br&gt;&lt;b&gt;SearchControl&lt;/b&gt;" style="html=1;dropTarget=0;whiteSpace=wrap;" parent="1" vertex="1">
          <mxGeometry x="270" y="310" width="180" height="90" as="geometry" />
        </mxCell>
        <mxCell id="O_cc4rlv1EW-NWDAQmC--4" value="" style="shape=module;jettyWidth=8;jettyHeight=4;" parent="O_cc4rlv1EW-NWDAQmC--3" vertex="1">
          <mxGeometry x="1" width="20" height="20" relative="1" as="geometry">
            <mxPoint x="-27" y="7" as="offset" />
          </mxGeometry>
        </mxCell>
        <mxCell id="O_cc4rlv1EW-NWDAQmC--5" value="«component»&lt;br&gt;&lt;b&gt;ChatControl&lt;/b&gt;" style="html=1;dropTarget=0;whiteSpace=wrap;" parent="1" vertex="1">
          <mxGeometry x="1070" y="310" width="180" height="90" as="geometry" />
        </mxCell>
        <mxCell id="O_cc4rlv1EW-NWDAQmC--6" value="" style="shape=module;jettyWidth=8;jettyHeight=4;" parent="O_cc4rlv1EW-NWDAQmC--5" vertex="1">
          <mxGeometry x="1" width="20" height="20" relative="1" as="geometry">
            <mxPoint x="-27" y="7" as="offset" />
          </mxGeometry>
        </mxCell>
        <mxCell id="O_cc4rlv1EW-NWDAQmC--7" value="«component»&lt;br&gt;&lt;b&gt;AuthenticationControl&lt;/b&gt;" style="html=1;dropTarget=0;whiteSpace=wrap;" parent="1" vertex="1">
          <mxGeometry x="860" y="310" width="180" height="90" as="geometry" />
        </mxCell>
        <mxCell id="O_cc4rlv1EW-NWDAQmC--8" value="" style="shape=module;jettyWidth=8;jettyHeight=4;" parent="O_cc4rlv1EW-NWDAQmC--7" vertex="1">
          <mxGeometry x="1" width="20" height="20" relative="1" as="geometry">
            <mxPoint x="-27" y="7" as="offset" />
          </mxGeometry>
        </mxCell>
        <mxCell id="vZ2CN4wMhGTW3bv5hmPA-1" value="«component»&lt;br&gt;&lt;b&gt;SearchGUI&lt;br&gt;&lt;/b&gt;" style="html=1;dropTarget=0;whiteSpace=wrap;" parent="1" vertex="1">
          <mxGeometry x="270" y="90" width="180" height="90" as="geometry" />
        </mxCell>
        <mxCell id="vZ2CN4wMhGTW3bv5hmPA-2" value="" style="shape=module;jettyWidth=8;jettyHeight=4;" parent="vZ2CN4wMhGTW3bv5hmPA-1" vertex="1">
          <mxGeometry x="1" width="20" height="20" relative="1" as="geometry">
            <mxPoint x="-27" y="7" as="offset" />
          </mxGeometry>
        </mxCell>
        <mxCell id="vZ2CN4wMhGTW3bv5hmPA-11" value="«Component»&lt;br&gt;&lt;b&gt;EmployerDAO&lt;/b&gt;" style="html=1;dropTarget=0;whiteSpace=wrap;" parent="1" vertex="1">
          <mxGeometry x="770" y="530" width="180" height="90" as="geometry" />
        </mxCell>
        <mxCell id="vZ2CN4wMhGTW3bv5hmPA-12" value="" style="shape=module;jettyWidth=8;jettyHeight=4;" parent="vZ2CN4wMhGTW3bv5hmPA-11" vertex="1">
          <mxGeometry x="1" width="20" height="20" relative="1" as="geometry">
            <mxPoint x="-27" y="7" as="offset" />
          </mxGeometry>
        </mxCell>
        <mxCell id="vZ2CN4wMhGTW3bv5hmPA-15" value="«component»&lt;br&gt;&lt;b&gt;UserControl&lt;/b&gt;" style="html=1;dropTarget=0;whiteSpace=wrap;" parent="1" vertex="1">
          <mxGeometry x="570" y="306" width="180" height="90" as="geometry" />
        </mxCell>
        <mxCell id="vZ2CN4wMhGTW3bv5hmPA-16" value="" style="shape=module;jettyWidth=8;jettyHeight=4;" parent="vZ2CN4wMhGTW3bv5hmPA-15" vertex="1">
          <mxGeometry x="1" width="20" height="20" relative="1" as="geometry">
            <mxPoint x="-27" y="7" as="offset" />
          </mxGeometry>
        </mxCell>
        <mxCell id="vZ2CN4wMhGTW3bv5hmPA-23" value="«component»&lt;br&gt;&lt;b&gt;ChatDAO&lt;/b&gt;" style="html=1;dropTarget=0;whiteSpace=wrap;" parent="1" vertex="1">
          <mxGeometry x="1070" y="530" width="180" height="90" as="geometry" />
        </mxCell>
        <mxCell id="vZ2CN4wMhGTW3bv5hmPA-24" value="" style="shape=module;jettyWidth=8;jettyHeight=4;" parent="vZ2CN4wMhGTW3bv5hmPA-23" vertex="1">
          <mxGeometry x="1" width="20" height="20" relative="1" as="geometry">
            <mxPoint x="-27" y="7" as="offset" />
          </mxGeometry>
        </mxCell>
        <mxCell id="vZ2CN4wMhGTW3bv5hmPA-47" value="" style="rounded=0;orthogonalLoop=1;jettySize=auto;html=1;endArrow=halfCircle;endFill=0;endSize=6;strokeWidth=1;sketch=0;exitX=0.5;exitY=1;exitDx=0;exitDy=0;" parent="1" source="vZ2CN4wMhGTW3bv5hmPA-1" target="vZ2CN4wMhGTW3bv5hmPA-49" edge="1">
          <mxGeometry relative="1" as="geometry">
            <mxPoint x="780" y="245" as="sourcePoint" />
          </mxGeometry>
        </mxCell>
        <mxCell id="vZ2CN4wMhGTW3bv5hmPA-48" value="" style="rounded=0;orthogonalLoop=1;jettySize=auto;html=1;endArrow=oval;endFill=0;sketch=0;sourcePerimeterSpacing=0;targetPerimeterSpacing=0;endSize=10;exitX=0.5;exitY=0;exitDx=0;exitDy=0;entryX=-0.129;entryY=0.329;entryDx=0;entryDy=0;entryPerimeter=0;" parent="1" source="O_cc4rlv1EW-NWDAQmC--3" target="vZ2CN4wMhGTW3bv5hmPA-49" edge="1">
          <mxGeometry relative="1" as="geometry">
            <mxPoint x="740" y="245" as="sourcePoint" />
          </mxGeometry>
        </mxCell>
        <mxCell id="vZ2CN4wMhGTW3bv5hmPA-49" value="" style="ellipse;whiteSpace=wrap;html=1;align=center;aspect=fixed;fillColor=none;strokeColor=none;resizable=0;perimeter=centerPerimeter;rotatable=0;allowArrows=0;points=[];outlineConnect=1;" parent="1" vertex="1">
          <mxGeometry x="355" y="230" width="10" height="10" as="geometry" />
        </mxCell>
        <mxCell id="vZ2CN4wMhGTW3bv5hmPA-50" value="" style="rounded=0;orthogonalLoop=1;jettySize=auto;html=1;endArrow=halfCircle;endFill=0;endSize=6;strokeWidth=1;sketch=0;exitX=0.5;exitY=1;exitDx=0;exitDy=0;" parent="1" source="vZ2CN4wMhGTW3bv5hmPA-56" target="vZ2CN4wMhGTW3bv5hmPA-52" edge="1">
          <mxGeometry relative="1" as="geometry">
            <mxPoint x="970" y="235" as="sourcePoint" />
          </mxGeometry>
        </mxCell>
        <mxCell id="vZ2CN4wMhGTW3bv5hmPA-51" value="" style="rounded=0;orthogonalLoop=1;jettySize=auto;html=1;endArrow=oval;endFill=0;sketch=0;sourcePerimeterSpacing=0;targetPerimeterSpacing=0;endSize=10;exitX=0.5;exitY=0;exitDx=0;exitDy=0;" parent="1" source="O_cc4rlv1EW-NWDAQmC--7" target="vZ2CN4wMhGTW3bv5hmPA-52" edge="1">
          <mxGeometry relative="1" as="geometry">
            <mxPoint x="930" y="235" as="sourcePoint" />
          </mxGeometry>
        </mxCell>
        <mxCell id="vZ2CN4wMhGTW3bv5hmPA-52" value="" style="ellipse;whiteSpace=wrap;html=1;align=center;aspect=fixed;fillColor=none;strokeColor=none;resizable=0;perimeter=centerPerimeter;rotatable=0;allowArrows=0;points=[];outlineConnect=1;" parent="1" vertex="1">
          <mxGeometry x="945" y="230" width="10" height="10" as="geometry" />
        </mxCell>
        <mxCell id="vZ2CN4wMhGTW3bv5hmPA-55" value="" style="rounded=0;orthogonalLoop=1;jettySize=auto;html=1;endArrow=halfCircle;endFill=0;endSize=6;strokeWidth=1;sketch=0;fontSize=12;" parent="1" target="vZ2CN4wMhGTW3bv5hmPA-56" edge="1">
          <mxGeometry relative="1" as="geometry">
            <mxPoint x="1150" y="180" as="sourcePoint" />
            <Array as="points">
              <mxPoint x="1150" y="235" />
            </Array>
          </mxGeometry>
        </mxCell>
        <mxCell id="vZ2CN4wMhGTW3bv5hmPA-58" value="" style="rounded=0;orthogonalLoop=1;jettySize=auto;html=1;endArrow=halfCircle;endFill=0;endSize=6;strokeWidth=1;sketch=0;exitX=0.478;exitY=0.988;exitDx=0;exitDy=0;exitPerimeter=0;" parent="1" source="4hjQzBS3B8wGqRVhp3q0-29" target="vZ2CN4wMhGTW3bv5hmPA-60" edge="1">
          <mxGeometry relative="1" as="geometry">
            <mxPoint x="1440" y="355" as="sourcePoint" />
            <Array as="points">
              <mxPoint x="1560" y="355" />
            </Array>
          </mxGeometry>
        </mxCell>
        <mxCell id="vZ2CN4wMhGTW3bv5hmPA-59" value="" style="rounded=0;orthogonalLoop=1;jettySize=auto;html=1;endArrow=oval;endFill=0;sketch=0;sourcePerimeterSpacing=0;targetPerimeterSpacing=0;endSize=10;exitX=1;exitY=0.5;exitDx=0;exitDy=0;" parent="1" source="O_cc4rlv1EW-NWDAQmC--5" target="vZ2CN4wMhGTW3bv5hmPA-60" edge="1">
          <mxGeometry relative="1" as="geometry">
            <mxPoint x="1400" y="355" as="sourcePoint" />
          </mxGeometry>
        </mxCell>
        <mxCell id="vZ2CN4wMhGTW3bv5hmPA-60" value="" style="ellipse;whiteSpace=wrap;html=1;align=center;aspect=fixed;fillColor=none;strokeColor=none;resizable=0;perimeter=centerPerimeter;rotatable=0;allowArrows=0;points=[];outlineConnect=1;" parent="1" vertex="1">
          <mxGeometry x="1355" y="350" width="10" height="10" as="geometry" />
        </mxCell>
        <mxCell id="vZ2CN4wMhGTW3bv5hmPA-62" value="" style="ellipse;whiteSpace=wrap;html=1;align=center;aspect=fixed;fillColor=none;strokeColor=none;resizable=0;perimeter=centerPerimeter;rotatable=0;allowArrows=0;points=[];outlineConnect=1;" parent="1" vertex="1">
          <mxGeometry x="1430" y="310" width="10" height="10" as="geometry" />
        </mxCell>
        <mxCell id="vZ2CN4wMhGTW3bv5hmPA-63" value="" style="rounded=0;orthogonalLoop=1;jettySize=auto;html=1;endArrow=halfCircle;endFill=0;endSize=6;strokeWidth=1;sketch=0;fontSize=12;exitX=0.5;exitY=1;exitDx=0;exitDy=0;" parent="1" source="4hjQzBS3B8wGqRVhp3q0-27" target="vZ2CN4wMhGTW3bv5hmPA-64" edge="1">
          <mxGeometry relative="1" as="geometry">
            <mxPoint x="1420" y="250" as="sourcePoint" />
            <Array as="points">
              <mxPoint x="1360" y="250" />
            </Array>
          </mxGeometry>
        </mxCell>
        <mxCell id="vZ2CN4wMhGTW3bv5hmPA-64" value="" style="ellipse;whiteSpace=wrap;html=1;align=center;aspect=fixed;fillColor=none;strokeColor=none;resizable=0;perimeter=centerPerimeter;rotatable=0;allowArrows=0;points=[];outlineConnect=1;" parent="1" vertex="1">
          <mxGeometry x="1355" y="350" width="10" height="10" as="geometry" />
        </mxCell>
        <mxCell id="vZ2CN4wMhGTW3bv5hmPA-65" value="" style="rounded=0;orthogonalLoop=1;jettySize=auto;html=1;endArrow=halfCircle;endFill=0;endSize=6;strokeWidth=1;sketch=0;exitX=0.5;exitY=1;exitDx=0;exitDy=0;" parent="1" source="4hjQzBS3B8wGqRVhp3q0-3" target="vZ2CN4wMhGTW3bv5hmPA-67" edge="1">
          <mxGeometry relative="1" as="geometry">
            <mxPoint x="170" y="235" as="sourcePoint" />
          </mxGeometry>
        </mxCell>
        <mxCell id="vZ2CN4wMhGTW3bv5hmPA-66" value="" style="rounded=0;orthogonalLoop=1;jettySize=auto;html=1;endArrow=oval;endFill=0;sketch=0;sourcePerimeterSpacing=0;targetPerimeterSpacing=0;endSize=10;" parent="1" source="O_cc4rlv1EW-NWDAQmC--1" target="vZ2CN4wMhGTW3bv5hmPA-67" edge="1">
          <mxGeometry relative="1" as="geometry">
            <mxPoint x="130" y="235" as="sourcePoint" />
          </mxGeometry>
        </mxCell>
        <mxCell id="vZ2CN4wMhGTW3bv5hmPA-67" value="" style="ellipse;whiteSpace=wrap;html=1;align=center;aspect=fixed;fillColor=none;strokeColor=none;resizable=0;perimeter=centerPerimeter;rotatable=0;allowArrows=0;points=[];outlineConnect=1;" parent="1" vertex="1">
          <mxGeometry x="145" y="230" width="10" height="10" as="geometry" />
        </mxCell>
        <mxCell id="vZ2CN4wMhGTW3bv5hmPA-68" value="" style="rounded=0;orthogonalLoop=1;jettySize=auto;html=1;endArrow=halfCircle;endFill=0;endSize=6;strokeWidth=1;sketch=0;exitX=0.5;exitY=1;exitDx=0;exitDy=0;" parent="1" source="4hjQzBS3B8wGqRVhp3q0-22" target="vZ2CN4wMhGTW3bv5hmPA-56" edge="1">
          <mxGeometry relative="1" as="geometry">
            <mxPoint x="950" y="180" as="sourcePoint" />
            <mxPoint x="950" y="245" as="targetPoint" />
          </mxGeometry>
        </mxCell>
        <mxCell id="vZ2CN4wMhGTW3bv5hmPA-56" value="" style="ellipse;whiteSpace=wrap;html=1;align=center;aspect=fixed;fillColor=none;strokeColor=none;resizable=0;perimeter=centerPerimeter;rotatable=0;allowArrows=0;points=[];outlineConnect=1;" parent="1" vertex="1">
          <mxGeometry x="945" y="230" width="10" height="10" as="geometry" />
        </mxCell>
        <mxCell id="vZ2CN4wMhGTW3bv5hmPA-70" value="" style="ellipse;whiteSpace=wrap;html=1;align=center;aspect=fixed;fillColor=none;strokeColor=none;resizable=0;perimeter=centerPerimeter;rotatable=0;allowArrows=0;points=[];outlineConnect=1;" parent="1" vertex="1">
          <mxGeometry x="945" y="230" width="10" height="10" as="geometry" />
        </mxCell>
        <mxCell id="vZ2CN4wMhGTW3bv5hmPA-87" value="" style="rounded=0;orthogonalLoop=1;jettySize=auto;html=1;endArrow=halfCircle;endFill=0;endSize=6;strokeWidth=1;sketch=0;exitX=0.25;exitY=1;exitDx=0;exitDy=0;edgeStyle=orthogonalEdgeStyle;" parent="1" source="O_cc4rlv1EW-NWDAQmC--3" target="vZ2CN4wMhGTW3bv5hmPA-89" edge="1">
          <mxGeometry relative="1" as="geometry">
            <mxPoint x="400" y="455" as="sourcePoint" />
            <Array as="points">
              <mxPoint x="315" y="461" />
            </Array>
          </mxGeometry>
        </mxCell>
        <mxCell id="vZ2CN4wMhGTW3bv5hmPA-88" value="" style="rounded=0;orthogonalLoop=1;jettySize=auto;html=1;endArrow=oval;endFill=0;sketch=0;sourcePerimeterSpacing=0;targetPerimeterSpacing=0;endSize=10;exitX=0.5;exitY=0;exitDx=0;exitDy=0;" parent="1" source="4hjQzBS3B8wGqRVhp3q0-7" target="vZ2CN4wMhGTW3bv5hmPA-89" edge="1">
          <mxGeometry relative="1" as="geometry">
            <mxPoint x="360" y="455" as="sourcePoint" />
          </mxGeometry>
        </mxCell>
        <mxCell id="vZ2CN4wMhGTW3bv5hmPA-89" value="" style="ellipse;whiteSpace=wrap;html=1;align=center;aspect=fixed;fillColor=none;strokeColor=none;resizable=0;perimeter=centerPerimeter;rotatable=0;allowArrows=0;points=[];outlineConnect=1;" parent="1" vertex="1">
          <mxGeometry x="240" y="456" width="10" height="10" as="geometry" />
        </mxCell>
        <mxCell id="vZ2CN4wMhGTW3bv5hmPA-93" value="" style="rounded=0;orthogonalLoop=1;jettySize=auto;html=1;endArrow=oval;endFill=0;sketch=0;sourcePerimeterSpacing=0;targetPerimeterSpacing=0;endSize=10;exitX=0.5;exitY=0;exitDx=0;exitDy=0;" parent="1" source="4hjQzBS3B8wGqRVhp3q0-10" target="vZ2CN4wMhGTW3bv5hmPA-94" edge="1">
          <mxGeometry relative="1" as="geometry">
            <mxPoint x="500" y="455" as="sourcePoint" />
          </mxGeometry>
        </mxCell>
        <mxCell id="vZ2CN4wMhGTW3bv5hmPA-94" value="" style="ellipse;whiteSpace=wrap;html=1;align=center;aspect=fixed;fillColor=none;strokeColor=none;resizable=0;perimeter=centerPerimeter;rotatable=0;allowArrows=0;points=[];outlineConnect=1;" parent="1" vertex="1">
          <mxGeometry x="555" y="456" width="10" height="10" as="geometry" />
        </mxCell>
        <mxCell id="vZ2CN4wMhGTW3bv5hmPA-96" value="" style="rounded=0;orthogonalLoop=1;jettySize=auto;html=1;endArrow=oval;endFill=0;sketch=0;sourcePerimeterSpacing=0;targetPerimeterSpacing=0;endSize=10;exitX=0.5;exitY=0;exitDx=0;exitDy=0;" parent="1" source="vZ2CN4wMhGTW3bv5hmPA-11" target="vZ2CN4wMhGTW3bv5hmPA-97" edge="1">
          <mxGeometry relative="1" as="geometry">
            <mxPoint x="880" y="445" as="sourcePoint" />
          </mxGeometry>
        </mxCell>
        <mxCell id="vZ2CN4wMhGTW3bv5hmPA-100" value="" style="ellipse;whiteSpace=wrap;html=1;align=center;aspect=fixed;fillColor=none;strokeColor=none;resizable=0;perimeter=centerPerimeter;rotatable=0;allowArrows=0;points=[];outlineConnect=1;" parent="1" vertex="1">
          <mxGeometry x="945" y="456" width="10" height="10" as="geometry" />
        </mxCell>
        <mxCell id="vZ2CN4wMhGTW3bv5hmPA-101" value="" style="rounded=0;orthogonalLoop=1;jettySize=auto;html=1;endArrow=halfCircle;endFill=0;endSize=6;strokeWidth=1;sketch=0;exitX=0.5;exitY=1;exitDx=0;exitDy=0;" parent="1" source="O_cc4rlv1EW-NWDAQmC--5" target="vZ2CN4wMhGTW3bv5hmPA-103" edge="1">
          <mxGeometry relative="1" as="geometry">
            <mxPoint x="1200" y="455" as="sourcePoint" />
            <Array as="points">
              <mxPoint x="1160" y="455" />
            </Array>
          </mxGeometry>
        </mxCell>
        <mxCell id="vZ2CN4wMhGTW3bv5hmPA-102" value="" style="rounded=0;orthogonalLoop=1;jettySize=auto;html=1;endArrow=oval;endFill=0;sketch=0;sourcePerimeterSpacing=0;targetPerimeterSpacing=0;endSize=10;exitX=0.5;exitY=0;exitDx=0;exitDy=0;" parent="1" source="vZ2CN4wMhGTW3bv5hmPA-23" target="vZ2CN4wMhGTW3bv5hmPA-103" edge="1">
          <mxGeometry relative="1" as="geometry">
            <mxPoint x="1160" y="455" as="sourcePoint" />
          </mxGeometry>
        </mxCell>
        <mxCell id="vZ2CN4wMhGTW3bv5hmPA-103" value="" style="ellipse;whiteSpace=wrap;html=1;align=center;aspect=fixed;fillColor=none;strokeColor=none;resizable=0;perimeter=centerPerimeter;rotatable=0;allowArrows=0;points=[];outlineConnect=1;" parent="1" vertex="1">
          <mxGeometry x="1155" y="456" width="10" height="10" as="geometry" />
        </mxCell>
        <mxCell id="vZ2CN4wMhGTW3bv5hmPA-114" value="" style="ellipse;whiteSpace=wrap;html=1;align=center;aspect=fixed;fillColor=none;strokeColor=none;resizable=0;perimeter=centerPerimeter;rotatable=0;allowArrows=0;points=[];outlineConnect=1;" parent="1" vertex="1">
          <mxGeometry x="555" y="456" width="10" height="10" as="geometry" />
        </mxCell>
        <mxCell id="vZ2CN4wMhGTW3bv5hmPA-117" value="" style="ellipse;whiteSpace=wrap;html=1;align=center;aspect=fixed;fillColor=none;strokeColor=none;resizable=0;perimeter=centerPerimeter;rotatable=0;allowArrows=0;points=[];outlineConnect=1;" parent="1" vertex="1">
          <mxGeometry x="945" y="456" width="10" height="10" as="geometry" />
        </mxCell>
        <mxCell id="vZ2CN4wMhGTW3bv5hmPA-119" value="" style="ellipse;whiteSpace=wrap;html=1;align=center;aspect=fixed;fillColor=none;strokeColor=none;resizable=0;perimeter=centerPerimeter;rotatable=0;allowArrows=0;points=[];outlineConnect=1;" parent="1" vertex="1">
          <mxGeometry x="945" y="456" width="10" height="10" as="geometry" />
        </mxCell>
        <mxCell id="vZ2CN4wMhGTW3bv5hmPA-140" value="" style="ellipse;whiteSpace=wrap;html=1;align=center;aspect=fixed;fillColor=none;strokeColor=none;resizable=0;perimeter=centerPerimeter;rotatable=0;allowArrows=0;points=[];outlineConnect=1;" parent="1" vertex="1">
          <mxGeometry x="555" y="456" width="10" height="10" as="geometry" />
        </mxCell>
        <mxCell id="_HC3MCcnosiCHFK4Tdls-2" value="" style="ellipse;whiteSpace=wrap;html=1;align=center;aspect=fixed;fillColor=none;strokeColor=none;resizable=0;perimeter=centerPerimeter;rotatable=0;allowArrows=0;points=[];outlineConnect=1;" parent="1" vertex="1">
          <mxGeometry x="855" y="470" width="10" height="10" as="geometry" />
        </mxCell>
        <mxCell id="_HC3MCcnosiCHFK4Tdls-3" value="" style="rounded=0;orthogonalLoop=1;jettySize=auto;html=1;endArrow=halfCircle;endFill=0;endSize=6;strokeWidth=1;sketch=0;fontSize=12;edgeStyle=orthogonalEdgeStyle;exitX=0.25;exitY=1;exitDx=0;exitDy=0;" parent="1" source="O_cc4rlv1EW-NWDAQmC--7" target="_HC3MCcnosiCHFK4Tdls-4" edge="1">
          <mxGeometry relative="1" as="geometry">
            <mxPoint x="580" y="475" as="sourcePoint" />
            <Array as="points">
              <mxPoint x="905" y="461" />
            </Array>
          </mxGeometry>
        </mxCell>
        <mxCell id="_HC3MCcnosiCHFK4Tdls-4" value="" style="ellipse;whiteSpace=wrap;html=1;align=center;aspect=fixed;fillColor=none;strokeColor=none;resizable=0;perimeter=centerPerimeter;rotatable=0;allowArrows=0;points=[];outlineConnect=1;" parent="1" vertex="1">
          <mxGeometry x="555" y="456" width="10" height="10" as="geometry" />
        </mxCell>
        <mxCell id="_HC3MCcnosiCHFK4Tdls-5" value="" style="rounded=0;orthogonalLoop=1;jettySize=auto;html=1;endArrow=halfCircle;endFill=0;endSize=6;strokeWidth=1;sketch=0;fontSize=12;edgeStyle=orthogonalEdgeStyle;exitX=0.5;exitY=1;exitDx=0;exitDy=0;" parent="1" target="_HC3MCcnosiCHFK4Tdls-6" edge="1">
          <mxGeometry relative="1" as="geometry">
            <mxPoint x="170" y="400" as="sourcePoint" />
            <Array as="points">
              <mxPoint x="170" y="461" />
            </Array>
          </mxGeometry>
        </mxCell>
        <mxCell id="_HC3MCcnosiCHFK4Tdls-6" value="" style="ellipse;whiteSpace=wrap;html=1;align=center;aspect=fixed;fillColor=none;strokeColor=none;resizable=0;perimeter=centerPerimeter;rotatable=0;allowArrows=0;points=[];outlineConnect=1;" parent="1" vertex="1">
          <mxGeometry x="240" y="456" width="10" height="10" as="geometry" />
        </mxCell>
        <mxCell id="_HC3MCcnosiCHFK4Tdls-8" value="" style="ellipse;whiteSpace=wrap;html=1;align=center;aspect=fixed;fillColor=none;strokeColor=none;resizable=0;perimeter=centerPerimeter;rotatable=0;allowArrows=0;points=[];outlineConnect=1;" parent="1" vertex="1">
          <mxGeometry x="355" y="230" width="10" height="10" as="geometry" />
        </mxCell>
        <mxCell id="_HC3MCcnosiCHFK4Tdls-10" value="" style="ellipse;whiteSpace=wrap;html=1;align=center;aspect=fixed;fillColor=none;strokeColor=none;resizable=0;perimeter=centerPerimeter;rotatable=0;allowArrows=0;points=[];outlineConnect=1;" parent="1" vertex="1">
          <mxGeometry x="355" y="230" width="10" height="10" as="geometry" />
        </mxCell>
        <mxCell id="3Ar8F-vP3MKCaAao-7d8-3" value="" style="rounded=0;orthogonalLoop=1;jettySize=auto;html=1;endArrow=halfCircle;endFill=0;endSize=6;strokeWidth=1;sketch=0;fontSize=12;edgeStyle=orthogonalEdgeStyle;exitX=0.25;exitY=1;exitDx=0;exitDy=0;" parent="1" source="vZ2CN4wMhGTW3bv5hmPA-15" target="3Ar8F-vP3MKCaAao-7d8-4" edge="1">
          <mxGeometry relative="1" as="geometry">
            <mxPoint x="570" y="422" as="sourcePoint" />
            <Array as="points">
              <mxPoint x="615" y="438" />
              <mxPoint x="560" y="438" />
            </Array>
          </mxGeometry>
        </mxCell>
        <mxCell id="3Ar8F-vP3MKCaAao-7d8-4" value="" style="ellipse;whiteSpace=wrap;html=1;align=center;aspect=fixed;fillColor=none;strokeColor=none;resizable=0;perimeter=centerPerimeter;rotatable=0;allowArrows=0;points=[];outlineConnect=1;" parent="1" vertex="1">
          <mxGeometry x="555" y="456" width="10" height="10" as="geometry" />
        </mxCell>
        <mxCell id="3Ar8F-vP3MKCaAao-7d8-6" value="" style="ellipse;whiteSpace=wrap;html=1;align=center;aspect=fixed;fillColor=none;strokeColor=none;resizable=0;perimeter=centerPerimeter;rotatable=0;allowArrows=0;points=[];outlineConnect=1;" parent="1" vertex="1">
          <mxGeometry x="660" y="441" width="10" height="10" as="geometry" />
        </mxCell>
        <mxCell id="3Ar8F-vP3MKCaAao-7d8-7" value="" style="rounded=0;orthogonalLoop=1;jettySize=auto;html=1;endArrow=halfCircle;endFill=0;endSize=6;strokeWidth=1;sketch=0;edgeStyle=orthogonalEdgeStyle;exitX=0.5;exitY=1;exitDx=0;exitDy=0;" parent="1" source="4hjQzBS3B8wGqRVhp3q0-18" target="3Ar8F-vP3MKCaAao-7d8-9" edge="1">
          <mxGeometry relative="1" as="geometry">
            <mxPoint x="770" y="239" as="sourcePoint" />
          </mxGeometry>
        </mxCell>
        <mxCell id="3Ar8F-vP3MKCaAao-7d8-8" value="" style="rounded=0;orthogonalLoop=1;jettySize=auto;html=1;endArrow=oval;endFill=0;sketch=0;sourcePerimeterSpacing=0;targetPerimeterSpacing=0;endSize=10;edgeStyle=orthogonalEdgeStyle;exitX=0.75;exitY=0;exitDx=0;exitDy=0;" parent="1" source="vZ2CN4wMhGTW3bv5hmPA-15" target="3Ar8F-vP3MKCaAao-7d8-9" edge="1">
          <mxGeometry relative="1" as="geometry">
            <mxPoint x="730" y="239" as="sourcePoint" />
            <Array as="points">
              <mxPoint x="705" y="268" />
              <mxPoint x="760" y="268" />
            </Array>
          </mxGeometry>
        </mxCell>
        <mxCell id="3Ar8F-vP3MKCaAao-7d8-9" value="" style="ellipse;whiteSpace=wrap;html=1;align=center;aspect=fixed;fillColor=none;strokeColor=none;resizable=0;perimeter=centerPerimeter;rotatable=0;allowArrows=0;points=[];outlineConnect=1;" parent="1" vertex="1">
          <mxGeometry x="755" y="225" width="10" height="10" as="geometry" />
        </mxCell>
        <mxCell id="3Ar8F-vP3MKCaAao-7d8-10" value="" style="rounded=0;orthogonalLoop=1;jettySize=auto;html=1;endArrow=halfCircle;endFill=0;endSize=6;strokeWidth=1;sketch=0;edgeStyle=orthogonalEdgeStyle;exitX=0.5;exitY=1;exitDx=0;exitDy=0;" parent="1" source="4hjQzBS3B8wGqRVhp3q0-20" target="3Ar8F-vP3MKCaAao-7d8-12" edge="1">
          <mxGeometry relative="1" as="geometry">
            <mxPoint x="580" y="230" as="sourcePoint" />
          </mxGeometry>
        </mxCell>
        <mxCell id="3Ar8F-vP3MKCaAao-7d8-11" value="" style="rounded=0;orthogonalLoop=1;jettySize=auto;html=1;endArrow=oval;endFill=0;sketch=0;sourcePerimeterSpacing=0;targetPerimeterSpacing=0;endSize=10;edgeStyle=orthogonalEdgeStyle;exitX=0.25;exitY=0;exitDx=0;exitDy=0;" parent="1" source="vZ2CN4wMhGTW3bv5hmPA-15" target="3Ar8F-vP3MKCaAao-7d8-12" edge="1">
          <mxGeometry relative="1" as="geometry">
            <mxPoint x="540" y="230" as="sourcePoint" />
            <Array as="points">
              <mxPoint x="615" y="268" />
              <mxPoint x="560" y="268" />
            </Array>
          </mxGeometry>
        </mxCell>
        <mxCell id="3Ar8F-vP3MKCaAao-7d8-12" value="" style="ellipse;whiteSpace=wrap;html=1;align=center;aspect=fixed;fillColor=none;strokeColor=none;resizable=0;perimeter=centerPerimeter;rotatable=0;allowArrows=0;points=[];outlineConnect=1;" parent="1" vertex="1">
          <mxGeometry x="555" y="225" width="10" height="10" as="geometry" />
        </mxCell>
        <mxCell id="RFTkVhOzcL3C026ARIEq-1" value="" style="rounded=0;orthogonalLoop=1;jettySize=auto;html=1;endArrow=halfCircle;endFill=0;endSize=6;strokeWidth=1;sketch=0;fontSize=12;entryX=0.567;entryY=0.967;entryDx=0;entryDy=0;entryPerimeter=0;exitX=0.75;exitY=1;exitDx=0;exitDy=0;edgeStyle=orthogonalEdgeStyle;" edge="1" target="3Ar8F-vP3MKCaAao-7d8-4" parent="1" source="O_cc4rlv1EW-NWDAQmC--3">
          <mxGeometry relative="1" as="geometry">
            <mxPoint x="438" y="416" as="sourcePoint" />
            <Array as="points">
              <mxPoint x="405" y="461" />
            </Array>
          </mxGeometry>
        </mxCell>
        <mxCell id="RFTkVhOzcL3C026ARIEq-2" value="" style="ellipse;whiteSpace=wrap;html=1;align=center;aspect=fixed;fillColor=none;strokeColor=none;resizable=0;perimeter=centerPerimeter;rotatable=0;allowArrows=0;points=[];outlineConnect=1;" vertex="1" parent="1">
          <mxGeometry x="413" y="411" width="10" height="10" as="geometry" />
        </mxCell>
        <mxCell id="vZ2CN4wMhGTW3bv5hmPA-97" value="" style="ellipse;whiteSpace=wrap;html=1;align=center;aspect=fixed;fillColor=none;strokeColor=none;resizable=0;perimeter=centerPerimeter;rotatable=0;allowArrows=0;points=[];outlineConnect=1;" parent="1" vertex="1">
          <mxGeometry x="855" y="470" width="10" height="10" as="geometry" />
        </mxCell>
        <mxCell id="RFTkVhOzcL3C026ARIEq-4" value="" style="rounded=0;orthogonalLoop=1;jettySize=auto;html=1;endArrow=halfCircle;endFill=0;endSize=6;strokeWidth=1;sketch=0;fontSize=12;exitX=0.75;exitY=1;exitDx=0;exitDy=0;edgeStyle=orthogonalEdgeStyle;" edge="1" target="vZ2CN4wMhGTW3bv5hmPA-97" parent="1" source="vZ2CN4wMhGTW3bv5hmPA-15">
          <mxGeometry relative="1" as="geometry">
            <mxPoint x="846" y="431" as="sourcePoint" />
            <Array as="points">
              <mxPoint x="705" y="475" />
            </Array>
          </mxGeometry>
        </mxCell>
        <mxCell id="RFTkVhOzcL3C026ARIEq-5" value="" style="ellipse;whiteSpace=wrap;html=1;align=center;aspect=fixed;fillColor=none;strokeColor=none;resizable=0;perimeter=centerPerimeter;rotatable=0;allowArrows=0;points=[];outlineConnect=1;" vertex="1" parent="1">
          <mxGeometry x="821" y="426" width="10" height="10" as="geometry" />
        </mxCell>
        <mxCell id="RFTkVhOzcL3C026ARIEq-6" value="" style="rounded=0;orthogonalLoop=1;jettySize=auto;html=1;endArrow=halfCircle;endFill=0;endSize=6;strokeWidth=1;sketch=0;fontSize=12;exitX=0.75;exitY=1;exitDx=0;exitDy=0;edgeStyle=orthogonalEdgeStyle;" edge="1" target="vZ2CN4wMhGTW3bv5hmPA-97" parent="1" source="O_cc4rlv1EW-NWDAQmC--7">
          <mxGeometry relative="1" as="geometry">
            <mxPoint x="982" y="429" as="sourcePoint" />
            <Array as="points">
              <mxPoint x="995" y="475" />
            </Array>
          </mxGeometry>
        </mxCell>
        <mxCell id="RFTkVhOzcL3C026ARIEq-7" value="" style="ellipse;whiteSpace=wrap;html=1;align=center;aspect=fixed;fillColor=none;strokeColor=none;resizable=0;perimeter=centerPerimeter;rotatable=0;allowArrows=0;points=[];outlineConnect=1;" vertex="1" parent="1">
          <mxGeometry x="957" y="424" width="10" height="10" as="geometry" />
        </mxCell>
        <mxCell id="RFTkVhOzcL3C026ARIEq-11" value="Data Access Layer" style="html=1;whiteSpace=wrap;rotation=-90;" vertex="1" parent="1">
          <mxGeometry x="-44" y="556.5" width="140" height="27" as="geometry" />
        </mxCell>
        <mxCell id="RFTkVhOzcL3C026ARIEq-12" value="Business Logic Layer" style="html=1;whiteSpace=wrap;rotation=-90;" vertex="1" parent="1">
          <mxGeometry x="-44" y="336.5" width="140" height="27" as="geometry" />
        </mxCell>
        <mxCell id="RFTkVhOzcL3C026ARIEq-13" value="Presentation Layer" style="html=1;whiteSpace=wrap;rotation=-90;" vertex="1" parent="1">
          <mxGeometry x="-44" y="116.5" width="140" height="27" as="geometry" />
        </mxCell>
      </root>
    </mxGraphModel>
  </diagram>
</mxfile>
